<svg preserveAspectRatio="xMidYMid meet" width="100%" height="100%" overflow="visible" style="display: block;" viewBox="0 0 175.182 188.306" fill="none" xmlns="http://www.w3.org/2000/svg">
<g id="Group">
<path id="Vector" d="M18.7894 102.638C17.8885 103.568 16.7458 104.033 15.4054 103.989C13.977 103.945 12.8343 103.369 11.9993 102.217C11.1643 101.065 10.4831 99.4031 9.93372 97.1878L8.81302 92.757L10.571 92.7127L11.6258 96.0136C12.0872 97.365 12.5267 98.3619 12.9662 99.0265C13.4057 99.6911 14.0429 100.023 14.856 100.046C15.6471 100.046 16.2843 99.824 16.7458 99.3145C17.2292 98.805 17.471 98.1625 17.4929 97.4093C17.4929 96.5453 17.2292 95.7256 16.6579 94.9946C16.0866 94.2635 15.3614 93.621 14.5044 93.0672L7.18691 92.89C5.75857 92.8457 4.65985 93.2001 3.91272 93.9312C3.16559 94.6623 2.79202 95.6813 2.74807 96.9662C2.7261 97.9188 2.85795 98.8714 3.16559 99.8019C3.47323 100.732 3.91272 101.707 4.48406 102.66L3.36336 103.457C2.33056 102.327 1.5175 101.087 0.880246 99.7354C0.242986 98.3841 -0.0207071 97.0105 0.00126735 95.6149C0.0232418 94.33 0.30891 93.2001 0.858271 92.2032C1.40763 91.2284 2.22069 90.4531 3.29744 89.8771C4.37418 89.3232 5.71462 89.0574 7.29678 89.1017L16.3722 89.3232C16.9875 89.3232 17.449 89.2346 17.7566 89.0131C18.0643 88.7916 18.2181 88.4593 18.2181 88.0162C18.2181 87.551 18.1082 87.1079 17.8885 86.6427L18.9213 86.0445C19.4047 86.6205 19.7563 87.263 19.976 87.9276C20.1958 88.5922 20.3057 89.2568 20.2837 89.9435C20.2837 90.8297 19.976 91.5608 19.4047 92.1589C18.8553 92.7571 18.0862 93.045 17.1413 93.0229H16.9875V93.3109C18.0862 94.1084 18.8773 94.9724 19.4047 95.9472C19.9321 96.8998 20.1738 97.9631 20.1299 99.1373C20.0859 100.511 19.6245 101.663 18.7235 102.593" fill="#F7F5F0"/>
<path id="Vector_2" d="M19.8222 84.3387C18.7015 85.0033 17.4929 85.1362 16.1964 84.7596C14.8121 84.3387 13.8671 83.4747 13.3837 82.1455C12.8783 80.8163 12.6586 79.0218 12.7025 76.7622L12.7684 72.1985L14.4605 72.6194L14.6143 76.0975C14.7022 77.5154 14.878 78.6009 15.1417 79.3541C15.4054 80.1073 15.9327 80.5947 16.7019 80.8384C17.449 81.06 18.1302 80.9935 18.7235 80.639C19.3168 80.2846 19.7124 79.7307 19.9321 78.9997C20.1738 78.1578 20.1299 77.316 19.7563 76.4299C19.3827 75.5659 18.8553 74.7462 18.1741 74.0151L11.1423 71.9105C9.75792 71.4896 8.61525 71.5561 7.7143 72.0656C6.81335 72.5751 6.17609 73.4613 5.8245 74.6797C5.5608 75.588 5.45093 76.5406 5.49488 77.5375C5.53883 78.5123 5.71463 79.5535 6.02227 80.6612L4.72577 81.1264C4.02259 79.775 3.53915 78.3572 3.29744 76.8951C3.05572 75.4329 3.12164 74.0151 3.51718 72.6859C3.89075 71.4453 4.46208 70.4262 5.23119 69.6287C6.00029 68.8312 6.98914 68.2773 8.19774 68.0336C9.38436 67.79 10.7468 67.8786 12.263 68.3216L20.9649 70.9358C21.5582 71.113 22.0416 71.1351 22.3932 71.0022C22.7448 70.8693 22.9865 70.5813 23.0964 70.1604C23.2283 69.7173 23.2283 69.2521 23.1184 68.7647L24.2611 68.4767C24.5687 69.1635 24.7445 69.8724 24.7884 70.5592C24.8324 71.2681 24.7665 71.9327 24.5687 72.5973C24.327 73.4391 23.8435 74.0816 23.1623 74.5025C22.4592 74.9456 21.6681 75.012 20.7452 74.7462L20.5913 74.7019L20.5034 74.9677C21.3604 76.0311 21.9098 77.0723 22.1515 78.1357C22.4152 79.199 22.3713 80.2846 22.0416 81.4144C21.6461 82.7215 20.899 83.7184 19.7783 84.383" fill="#F7F5F0"/>
<path id="Vector_3" d="M12.4168 58.0202C12.0872 57.9538 11.7796 57.9981 11.5598 58.1532C11.3181 58.3304 11.0324 58.6405 10.6809 59.0836L9.80187 58.5076L11.9993 53.2572L12.1312 53.0578L14.7901 54.7858L14.9219 54.5864C14.3945 53.3015 14.1308 52.1052 14.1528 50.9975C14.1528 49.8899 14.5044 48.8265 15.1636 47.7853C15.8009 46.7884 16.592 46.0573 17.5369 45.5699C18.4818 45.0825 19.5585 44.9053 20.7452 45.0382C21.9318 45.1712 23.1843 45.6807 24.4808 46.5225L31.6225 51.1748C32.3037 51.6178 32.8311 51.928 33.2047 52.0609C33.5782 52.216 33.9079 52.216 34.1935 52.1052C34.4792 51.9945 34.7868 51.7508 35.1384 51.352L36.0174 51.928L32.062 58.1088L31.183 57.5329C31.4028 57.0455 31.4907 56.6689 31.4687 56.3587C31.4687 56.0486 31.2929 55.7606 31.0072 55.4726C30.7216 55.1846 30.2381 54.8301 29.5569 54.387L22.4372 49.7569C21.6461 49.2474 20.877 48.9373 20.1738 48.8486C19.4706 48.76 18.8334 48.8486 18.262 49.0923C17.7127 49.3582 17.2512 49.7569 16.8776 50.3329C16.2843 51.2634 16.0646 52.2381 16.1964 53.2572C16.3283 54.2984 16.6579 55.3175 17.1853 56.3587L25.0082 61.454C25.6894 61.8971 26.2168 62.1851 26.6123 62.318C26.9859 62.4509 27.3155 62.4731 27.6012 62.3623C27.8649 62.2737 28.1725 62.03 28.5021 61.6534L29.3811 62.2294L25.4477 68.366L24.5687 67.79C24.7885 67.3026 24.8764 66.926 24.8544 66.6158C24.8544 66.3057 24.6786 66.0177 24.3929 65.7297C24.1072 65.4417 23.6238 65.0872 22.9426 64.6442L13.7353 58.6405C13.1859 58.2861 12.7465 58.0645 12.3949 57.9981" fill="#F7F5F0"/>
<path id="Vector_4" d="M43.8843 40.6961C44.082 39.5885 44.06 38.5251 43.8183 37.506L40.0827 32.9867C39.2916 32.0341 38.4785 31.3252 37.6215 30.8599C36.7645 30.3947 35.9075 30.1953 35.0505 30.2839C34.1935 30.3504 33.3805 30.727 32.6114 31.3695C31.7544 32.0784 31.205 32.9867 30.9633 34.0501C30.7216 35.1356 30.7875 36.2654 31.183 37.506C31.5786 38.7245 32.2598 39.9429 33.2486 41.1392C34.7429 42.9558 36.3031 44.0413 37.9292 44.4401C39.5553 44.8388 41.0056 44.5065 42.2581 43.4432C43.1371 42.7121 43.6645 41.7817 43.8843 40.6961ZM39.1817 48.2505C37.7534 48.4499 36.3031 48.2062 34.8308 47.5194C33.3585 46.8548 31.9961 45.7693 30.7655 44.285C29.469 42.7343 28.634 41.0506 28.1945 39.2783C27.777 37.506 27.799 35.8002 28.3044 34.1608C28.8098 32.5215 29.7547 31.1258 31.1171 29.9738C31.7983 29.3978 32.5454 28.9547 33.3365 28.6446C34.1276 28.3344 34.9187 28.1794 35.7317 28.1794L35.9515 28.0021L31.7544 22.929C31.3368 22.4194 30.9852 22.0871 30.6776 21.932C30.3919 21.777 30.0843 21.7327 29.7986 21.8213C29.491 21.9099 29.1174 22.1093 28.634 22.4416L27.9528 21.6219L31.6225 17.2576L31.8203 17.1026L47.6858 36.3097C48.1253 36.8414 48.4769 37.1959 48.7406 37.3731C49.0043 37.5725 49.268 37.6389 49.5097 37.5725C49.7734 37.5282 50.125 37.3288 50.5645 37.0186L51.2457 37.8383L47.8616 42.0697L47.7078 42.2026L45.7301 39.81L45.5104 39.9872C45.6862 41.3386 45.5543 42.557 45.1368 43.6426C44.7193 44.7281 43.9941 45.6807 42.9833 46.5447C41.8846 47.4751 40.6101 48.029 39.1817 48.2283" fill="#F7F5F0"/>
<path id="Vector_5" d="M53.9266 36.7528C52.696 36.3097 51.817 35.4679 51.2896 34.2273C50.7183 32.8981 50.7623 31.6132 51.4435 30.3726C52.1247 29.132 53.3333 27.8027 55.0912 26.3849L58.6071 23.505L59.3762 25.1L56.8492 27.4704C55.8164 28.4452 55.1132 29.287 54.7177 29.9738C54.3221 30.6606 54.2782 31.3695 54.6078 32.1227C54.9154 32.8538 55.3989 33.319 56.0581 33.5405C56.7173 33.7621 57.3985 33.7178 58.0797 33.4076C58.8708 33.0531 59.4861 32.455 59.9036 31.6132C60.3211 30.7713 60.6068 29.8409 60.7386 28.844L57.8161 22.065C57.2447 20.7358 56.4756 19.8939 55.5087 19.5173C54.5419 19.1628 53.4651 19.2293 52.3005 19.7388C51.4215 20.1155 50.6304 20.6471 49.9272 21.3117C49.2021 21.9764 48.5428 22.796 47.9056 23.7265L46.719 23.0397C47.2903 21.6219 48.0594 20.3591 49.0263 19.2072C49.9931 18.0773 51.0919 17.2355 52.3664 16.6595C53.531 16.15 54.6737 15.9284 55.7944 16.017C56.9151 16.1057 57.9479 16.5266 58.9148 17.2798C59.8816 18.033 60.6727 19.1407 61.288 20.6028L64.8918 28.999C65.1335 29.575 65.4192 29.9516 65.7488 30.151C66.0784 30.3283 66.452 30.3504 66.8476 30.151C67.2651 29.9738 67.6386 29.6636 67.9243 29.2649L68.8912 29.9516C68.5616 30.6384 68.144 31.2144 67.6386 31.7018C67.1332 32.1892 66.5839 32.5658 65.9466 32.8316C65.1555 33.1861 64.3644 33.2304 63.5953 32.9645C62.8262 32.6987 62.2329 32.1448 61.8593 31.2587L61.7934 31.1036L61.5297 31.2144C61.266 32.5436 60.8265 33.6513 60.1893 34.5374C59.552 35.4236 58.695 36.0882 57.6183 36.5534C56.3657 37.1073 55.1352 37.1516 53.9266 36.7085" fill="#F7F5F0"/>
<path id="Vector_6" d="M73.9233 29.6193C72.3631 28.9769 71.0667 27.98 70.0339 26.6065C69.0011 25.2329 68.3418 23.5936 68.0781 21.7327C67.7925 19.7831 67.9463 17.9666 68.5616 16.2607C69.1769 14.5549 70.1657 13.1592 71.5061 12.0294C72.8686 10.9217 74.4727 10.2128 76.3625 9.92481C77.3074 9.79188 78.2303 9.74758 79.1533 9.81404C80.0762 9.8805 80.9332 10.0577 81.7462 10.3236L82.4055 14.7986L81.3287 14.9537C80.9332 13.9124 80.2959 13.1149 79.4609 12.5832C78.6039 12.0515 77.681 11.8522 76.6482 12.0072C75.4615 12.1845 74.4727 12.6718 73.6596 13.4472C72.8466 14.2226 72.2752 15.1974 71.9456 16.3937C71.616 17.5678 71.5721 18.8527 71.7698 20.2484C72.0116 21.8434 72.495 23.1726 73.2421 24.236C73.9893 25.2994 74.9342 26.0526 76.0549 26.5178C77.1756 26.9609 78.3841 27.0938 79.6806 26.8945C80.7574 26.7394 81.7023 26.4292 82.5153 25.964C83.3284 25.4988 84.0755 24.9006 84.7567 24.1696L85.8555 24.9671C84.9765 26.4735 83.9876 27.6698 82.8669 28.556C81.7462 29.4421 80.4497 29.9738 78.9775 30.1953C77.1755 30.4612 75.5055 30.2839 73.9453 29.6415" fill="#F7F5F0"/>
<path id="Vector_7" d="M91.3711 2.4812C91.2832 2.1489 91.1293 1.90521 90.8656 1.75013C90.6019 1.61721 90.2064 1.48429 89.6351 1.35137L89.7669 0.287996L95.4144 0H95.6561C95.6561 0.0221536 94.0739 12.8712 94.0739 12.8712H94.3156C95.2605 11.8522 96.2274 11.0989 97.1943 10.6337C98.1612 10.1685 99.2599 10.0134 100.468 10.1685C101.633 10.3236 102.622 10.7002 103.479 11.3648C104.336 12.0072 104.951 12.8934 105.347 14.0454C105.742 15.1752 105.83 16.5266 105.654 18.0773L104.6 26.5843C104.49 27.404 104.468 28.0021 104.49 28.4231C104.512 28.8218 104.644 29.132 104.863 29.3314C105.083 29.5307 105.435 29.708 105.94 29.863L105.808 30.9264L98.5787 30.0181L98.7105 28.9547C99.2379 28.9547 99.6334 28.8661 99.8971 28.711C100.161 28.556 100.359 28.2901 100.49 27.9135C100.622 27.5369 100.732 26.9388 100.842 26.1191L101.897 17.6564C102.007 16.7038 101.963 15.8841 101.721 15.1974C101.501 14.5106 101.128 13.9568 100.644 13.5801C100.161 13.1814 99.5895 12.9598 98.9083 12.8712C97.8535 12.7383 96.9086 12.9598 96.0296 13.5137C95.1726 14.0897 94.3815 14.8207 93.7003 15.7734L92.5357 25.1C92.4258 25.9197 92.4039 26.5178 92.4478 26.9388C92.4917 27.3375 92.6236 27.6477 92.8214 27.8471C93.0191 28.0464 93.3707 28.2237 93.8542 28.3787L93.7223 29.4421L86.5367 28.5338L86.6685 27.4704C87.1959 27.4704 87.5914 27.3818 87.8551 27.2268C88.1188 27.0717 88.3166 26.8058 88.4484 26.4292C88.5803 26.0526 88.6902 25.4545 88.8 24.6348L91.3491 4.03195C91.437 3.3895 91.437 2.87997 91.3491 2.54766" fill="#F7F5F0"/>
<path id="Vector_8" d="M111.324 33.4076C110.753 32.7873 110.423 32.0341 110.313 31.1479C110.203 30.2618 110.357 29.2427 110.796 28.1129L115.191 16.6152L111.544 15.1974L112.181 13.558C113.521 14.0232 114.554 14.2448 115.279 14.2004C116.004 14.1783 116.62 13.8681 117.147 13.27C117.652 12.6718 118.246 11.6528 118.883 10.2128L121.344 11.1654L119.564 15.8398L124.816 17.8779L124.003 20.0268L118.751 17.9887L114.378 29.3978C114.005 30.3726 113.939 31.1479 114.159 31.7018C114.378 32.2778 114.884 32.6987 115.675 33.0088C116.642 33.3854 117.631 33.4741 118.663 33.2968L118.927 34.626C117.015 35.4014 115.235 35.4679 113.521 34.8254C112.642 34.471 111.917 34.0057 111.346 33.3854" fill="#F7F5F0"/>
<path id="Vector_9" d="M136.485 27.0052C136.485 26.4292 136.309 25.7868 135.913 25.1222L136.594 24.3025L142.637 29.5529L141.956 30.3726C141.143 29.9516 140.528 29.8852 140.154 30.1953C139.781 30.5055 139.407 31.1258 139.078 32.0562L135.672 42.0475L135.891 42.2247L144.945 37.506C145.956 36.9965 146.593 36.5313 146.857 36.0882C147.12 35.6451 147.01 35.047 146.527 34.3381L147.208 33.5184L151.867 37.5503L151.186 38.37C150.438 38.0155 149.757 37.9048 149.098 38.0156C148.461 38.1263 147.582 38.4586 146.461 39.0125L132.375 46.301L130.881 45.0161L135.935 29.3092C136.265 28.3787 136.441 27.6034 136.463 27.0274" fill="#F7F5F0"/>
<path id="Vector_10" d="M147.757 60.5901C148.724 60.9224 149.845 60.9445 151.076 60.6565C152.328 60.3685 153.625 59.7482 155.009 58.8399C156.393 57.9095 157.448 56.9347 158.173 55.8935C158.899 54.8523 159.316 53.8332 159.382 52.792C159.448 51.7508 159.184 50.7982 158.591 49.8677C157.976 48.9373 157.163 48.2948 156.174 47.9625C155.185 47.6302 154.064 47.6081 152.834 47.896C151.581 48.184 150.307 48.7822 148.966 49.6683C147.604 50.5766 146.549 51.5514 145.802 52.5926C145.055 53.6338 144.637 54.675 144.571 55.7163C144.505 56.7575 144.769 57.7765 145.406 58.7292C146 59.6374 146.791 60.2578 147.757 60.5901ZM141.89 55.0295C141.802 53.3015 142.154 51.6622 142.967 50.1114C143.78 48.5607 145.011 47.2314 146.637 46.1459C148.263 45.0604 149.933 44.4179 151.691 44.2629C153.427 44.1078 155.053 44.3958 156.591 45.1712C158.129 45.9244 159.404 47.0985 160.415 48.6493C161.448 50.2 161.997 51.8172 162.107 53.5452C162.217 55.251 161.843 56.8904 161.03 58.4412C160.217 59.9919 158.986 61.3211 157.36 62.4066C155.734 63.4922 154.042 64.1346 152.306 64.2897C150.57 64.4448 148.944 64.1568 147.406 63.4257C145.868 62.6725 144.593 61.5427 143.56 59.9919C142.528 58.4412 141.978 56.8018 141.89 55.0738" fill="#F7F5F0"/>
<path id="Vector_11" d="M155.844 80.0187C156.679 80.6169 157.734 80.9713 159.008 81.06C160.283 81.1486 161.711 80.9492 163.293 80.484C164.876 80.0187 166.172 79.3763 167.183 78.6231C168.194 77.8477 168.875 76.9837 169.249 76.0089C169.622 75.0342 169.644 74.0373 169.336 72.9961C169.029 71.9105 168.435 71.0687 167.6 70.4484C166.743 69.8281 165.689 69.4736 164.414 69.385C163.14 69.2964 161.733 69.4736 160.195 69.9389C158.635 70.4041 157.338 71.0244 156.328 71.7776C155.295 72.5308 154.614 73.417 154.24 74.3917C153.866 75.3665 153.844 76.4077 154.152 77.5154C154.46 78.5566 155.031 79.3984 155.866 79.9966M151.845 72.9739C152.262 71.2902 153.075 69.8281 154.306 68.5875C155.536 67.3469 157.097 66.4386 158.964 65.8848C160.832 65.3309 162.634 65.2202 164.326 65.5746C166.04 65.9291 167.513 66.7044 168.743 67.9007C169.974 69.0749 170.875 70.5592 171.402 72.3536C171.929 74.148 171.995 75.8539 171.578 77.5154C171.182 79.1769 170.347 80.639 169.117 81.8575C167.886 83.0981 166.326 84.0064 164.458 84.5602C162.59 85.1141 160.788 85.2248 159.096 84.8704C157.382 84.5159 155.91 83.7405 154.657 82.5886C153.405 81.4144 152.526 79.9523 151.999 78.1578C151.471 76.3634 151.427 74.6354 151.823 72.9739" fill="#F7F5F0"/>
<path id="Vector_12" d="M171.556 89.9435C171.863 89.8106 172.083 89.6112 172.193 89.3232C172.303 89.0352 172.369 88.6143 172.413 88.0383L173.468 87.994L174.654 93.5767V93.8204L169.095 94.042V94.2856C171.16 94.773 172.676 95.4598 173.643 96.3238C174.61 97.1878 175.116 98.2954 175.182 99.6247C175.182 100.112 175.16 100.622 175.028 101.109L171.16 101.264C171.314 100.754 171.358 100.223 171.336 99.6247C171.292 98.2954 170.787 97.1656 169.82 96.2795C168.853 95.3933 167.513 94.6844 165.755 94.1749L159.162 94.4186C158.327 94.4407 157.734 94.5072 157.382 94.6179C157.031 94.7066 156.789 94.8838 156.657 95.1496C156.525 95.4155 156.415 95.8585 156.371 96.501L155.317 96.5453L155.031 88.9909L156.086 88.9466C156.196 89.5005 156.328 89.8771 156.481 90.0986C156.635 90.3201 156.899 90.4752 157.272 90.5417C157.646 90.6081 158.239 90.6303 159.052 90.586L170.149 90.1651C170.809 90.1429 171.27 90.0543 171.578 89.9214" fill="#F7F5F0"/>
<path id="Vector_13" d="M169.688 116.749C170.018 116.727 170.281 116.594 170.479 116.351C170.677 116.129 170.875 115.73 171.072 115.199L172.083 115.487L171.49 121.158L171.424 121.402L166.062 119.851L165.996 120.095C167.798 121.202 169.029 122.332 169.688 123.462C170.347 124.592 170.479 125.788 170.127 127.095C169.996 127.56 169.798 128.026 169.534 128.469L165.82 127.405C166.106 126.984 166.348 126.475 166.502 125.899C166.875 124.614 166.721 123.395 166.106 122.243C165.469 121.091 164.392 120.006 162.876 118.965L156.525 117.148C155.712 116.904 155.119 116.794 154.767 116.772C154.416 116.772 154.108 116.838 153.91 117.06C153.691 117.259 153.471 117.658 153.207 118.256L152.196 117.968L154.262 110.701L155.273 110.989C155.207 111.543 155.207 111.942 155.273 112.208C155.361 112.474 155.558 112.695 155.888 112.873C156.218 113.05 156.767 113.249 157.558 113.471L168.238 116.55C168.875 116.727 169.336 116.794 169.688 116.772" fill="#F7F5F0"/>
<path id="Vector_14" d="M148.834 127.582C149.691 127.095 150.702 126.896 151.823 126.962C152.943 127.029 154.13 127.427 155.361 128.158L162.986 132.656C163.623 133.032 164.15 133.276 164.568 133.387C164.985 133.497 165.359 133.497 165.667 133.387C165.974 133.276 166.326 133.01 166.678 132.634L167.6 133.165L164.744 138.083L153.515 131.482C152.394 130.817 151.405 130.573 150.526 130.728C149.669 130.883 148.988 131.371 148.527 132.213C148.021 133.077 147.867 134.029 148.043 135.07C148.241 136.112 148.636 137.109 149.274 138.083L157.185 142.736C158.151 143.312 158.877 143.577 159.382 143.577C159.887 143.577 160.371 143.267 160.854 142.669L161.777 143.201L158.899 148.163L146 140.564C145.384 140.21 144.945 139.988 144.637 139.9C144.329 139.811 144.088 139.856 143.846 139.988C143.626 140.121 143.363 140.409 143.033 140.875L142.11 140.343L143.868 135.203L143.978 135.026L146.659 136.599L146.813 136.355C146.263 135.292 145.956 134.206 145.912 133.032C145.868 131.88 146.131 130.773 146.747 129.709C147.274 128.779 147.977 128.092 148.834 127.582Z" fill="#F7F5F0"/>
<path id="Vector_15" d="M155.822 158.531C156.547 158.487 157.185 158.73 157.734 159.262C158.283 159.772 158.547 160.392 158.591 161.123C158.613 161.854 158.393 162.497 157.888 163.028C157.404 163.56 156.811 163.826 156.086 163.848C155.361 163.87 154.723 163.649 154.196 163.139C153.647 162.629 153.361 162.031 153.339 161.3C153.295 160.569 153.537 159.949 154.02 159.395C154.504 158.841 155.119 158.553 155.844 158.531M137.517 146.945C137.166 146.745 136.858 146.657 136.572 146.701C136.287 146.745 135.935 146.945 135.518 147.255L134.749 146.524L139.671 141.163L140.44 141.894C140.154 142.337 139.979 142.691 139.957 143.001C139.913 143.312 140.022 143.622 140.242 143.954C140.484 144.286 140.901 144.729 141.517 145.305L149.537 152.771C150.021 153.214 150.416 153.502 150.746 153.635C151.076 153.768 151.361 153.768 151.647 153.635C151.911 153.502 152.262 153.236 152.68 152.882L153.449 153.613L150.416 158.376L150.219 158.597L138.968 148.119C138.352 147.543 137.869 147.144 137.517 146.945Z" fill="#F7F5F0"/>
<path id="Vector_16" d="M141.605 163.981C141.868 164.18 142.154 164.269 142.44 164.247C142.725 164.224 143.143 164.069 143.67 163.826L144.198 164.756L139.913 168.434L139.671 168.589L138.067 165.82L137.847 165.952C137.759 167.304 137.429 168.5 136.88 169.519C136.331 170.538 135.54 171.358 134.485 171.978C133.43 172.599 132.331 172.842 131.211 172.731C130.09 172.621 129.057 172.133 128.09 171.314L127.871 171.447C127.871 172.887 127.585 174.127 127.058 175.213C126.53 176.276 125.739 177.14 124.64 177.782C123.695 178.336 122.729 178.602 121.696 178.602C120.663 178.602 119.674 178.27 118.729 177.627C117.784 177.007 116.949 176.077 116.246 174.836L111.785 167.149C111.368 166.418 111.016 165.908 110.753 165.598C110.489 165.288 110.203 165.133 109.917 165.088C109.632 165.044 109.236 165.133 108.731 165.332L108.203 164.402L114.466 160.724L114.994 161.655C114.598 161.987 114.334 162.297 114.202 162.563C114.071 162.851 114.093 163.161 114.202 163.56C114.334 163.937 114.598 164.512 115.038 165.244L119.388 172.754C120.07 173.928 120.861 174.681 121.718 174.991C122.597 175.301 123.476 175.191 124.355 174.681C125.168 174.194 125.739 173.485 126.069 172.554C126.398 171.624 126.53 170.56 126.508 169.364L121.718 161.101C121.3 160.392 120.971 159.905 120.707 159.639C120.443 159.373 120.18 159.218 119.894 159.218C119.63 159.218 119.235 159.284 118.729 159.439L118.202 158.509L124.465 154.831L124.992 155.762C124.596 156.116 124.355 156.426 124.223 156.67C124.091 156.914 124.091 157.224 124.201 157.601C124.311 157.977 124.552 158.509 124.97 159.218L129.365 166.794C130.068 167.991 130.837 168.766 131.694 169.098C132.551 169.431 133.452 169.32 134.419 168.744C135.232 168.256 135.825 167.525 136.177 166.551C136.529 165.554 136.682 164.513 136.594 163.427L131.848 155.23C131.43 154.521 131.101 154.012 130.837 153.724C130.573 153.436 130.31 153.281 130.024 153.258C129.738 153.236 129.343 153.303 128.859 153.48L128.332 152.55L134.595 148.872L135.122 149.803C134.705 150.179 134.441 150.489 134.331 150.755C134.221 151.021 134.221 151.331 134.331 151.708C134.463 152.084 134.727 152.616 135.122 153.325L140.66 162.895C140.989 163.471 141.275 163.848 141.539 164.069" fill="#F7F5F0"/>
<path id="Vector_17" d="M102.204 164.18C103.018 164.38 103.699 164.823 104.27 165.532C104.841 166.218 105.259 167.149 105.501 168.323L108.028 180.374L111.851 179.555L112.203 181.283C110.84 181.637 109.852 182.014 109.258 182.435C108.665 182.856 108.313 183.454 108.203 184.229C108.094 185.005 108.16 186.179 108.401 187.752L105.808 188.305L104.775 183.41L99.2819 184.584L98.8204 182.324L104.314 181.15L101.809 169.187C101.589 168.168 101.238 167.481 100.754 167.127C100.271 166.772 99.6115 166.684 98.7764 166.861C97.7656 167.082 96.8866 167.548 96.1175 168.256L95.1726 167.282C96.3373 165.576 97.8096 164.535 99.5895 164.158C100.512 163.959 101.391 163.959 102.182 164.158" fill="#F7F5F0"/>
<path id="Vector_18" d="M90.3602 166.551C91.7886 167.415 92.9312 168.611 93.7663 170.184C94.6013 171.735 94.9968 173.551 94.9529 175.611C94.9309 177.517 94.5134 179.245 93.7003 180.795C92.9092 182.324 91.8105 183.52 90.4261 184.406C89.0417 185.27 87.5035 185.691 85.7895 185.669C84.3612 185.647 83.0647 185.337 81.944 184.717C80.8233 184.118 79.9443 183.21 79.329 182.036C78.7138 180.862 78.4061 179.444 78.4501 177.805V176.564L92.0742 176.786V178.713C92.0522 178.713 80.23 178.514 80.23 178.514L82.2516 177.561C82.1198 178.735 82.1857 179.776 82.4714 180.685C82.7351 181.593 83.1965 182.302 83.8338 182.811C84.4711 183.321 85.2621 183.565 86.1851 183.587C87.1959 183.587 88.0749 183.343 88.822 182.811C89.5691 182.28 90.1624 181.504 90.58 180.485C90.9975 179.466 91.2172 178.248 91.2392 176.83C91.2612 175.058 90.9975 173.529 90.4261 172.288C89.8548 171.026 89.0198 170.073 87.943 169.408C86.8663 168.744 85.6357 168.412 84.2074 168.389C83.0647 168.389 82.0758 168.522 81.1969 168.81C80.3399 169.12 79.4829 169.586 78.6259 170.228L77.7029 169.276C78.8676 167.902 80.0762 166.883 81.3067 166.218C82.5593 165.554 83.9656 165.244 85.5478 165.266C87.3277 165.288 88.9538 165.731 90.3822 166.595" fill="#F7F5F0"/>
<path id="Vector_19" d="M62.6504 179.732C62.8262 180.286 63.1998 180.818 63.7711 181.327L63.3756 182.302L56.0142 179.223L56.4317 178.248C57.3326 178.381 57.9259 178.248 58.2116 177.849C58.4753 177.45 58.6291 176.741 58.6511 175.744L58.8049 165.177L58.5412 165.066L51.3775 172.377C50.5865 173.175 50.125 173.817 49.9932 174.327C49.8613 174.836 50.147 175.368 50.8502 175.877L50.4326 176.852L44.7632 174.482L45.1588 173.507C45.9718 173.618 46.675 173.507 47.2463 173.197C47.8177 172.887 48.5648 172.311 49.4438 171.424L60.6068 160.104L62.4087 160.857V177.362C62.4087 178.359 62.4746 179.134 62.6504 179.688" fill="#F7F5F0"/>
<path id="Vector_20" d="M41.5989 151.309C40.5661 151.309 39.5113 151.619 38.4126 152.284C37.3139 152.948 36.2591 153.923 35.2263 155.252C34.1935 156.559 33.4903 157.822 33.1168 159.041C32.7432 160.259 32.6773 161.367 32.919 162.364C33.1607 163.361 33.7321 164.202 34.5671 164.889C35.4461 165.576 36.391 165.93 37.4457 165.952C38.5005 165.952 39.5553 165.642 40.654 164.978C41.7527 164.313 42.7855 163.338 43.7744 162.076C44.7852 160.791 45.4884 159.528 45.8839 158.309C46.2795 157.091 46.3674 155.983 46.1037 154.942C45.84 153.923 45.2686 153.059 44.3897 152.328C43.5327 151.641 42.6097 151.309 41.5769 151.287M48.8944 154.765C49.5097 156.382 49.6855 158.044 49.3779 159.772C49.0702 161.5 48.3231 163.139 47.1145 164.69C45.9059 166.24 44.4995 167.348 42.8954 168.057C41.2913 168.744 39.6432 168.965 37.9511 168.722C36.2591 168.478 34.6989 167.769 33.2486 166.617C31.7983 165.465 30.7655 164.092 30.1502 162.497C29.5349 160.901 29.3811 159.24 29.6668 157.512C29.9744 155.784 30.7216 154.145 31.9301 152.594C33.1387 151.043 34.5451 149.935 36.1492 149.227C37.7534 148.54 39.4015 148.296 41.0935 148.54C42.7855 148.761 44.3457 149.47 45.796 150.622C47.2463 151.774 48.2791 153.17 48.8944 154.765Z" fill="#F7F5F0"/>
<path id="Vector_21" d="M27.9528 135.381C26.9859 135.07 25.8652 135.07 24.6346 135.381C23.4041 135.691 22.1076 136.333 20.7452 137.286C19.3827 138.238 18.3499 139.235 17.6248 140.277C16.8996 141.318 16.5261 142.359 16.4821 143.4C16.4382 144.441 16.7238 145.394 17.3391 146.302C17.9764 147.233 18.7894 147.853 19.7783 148.163C20.7671 148.473 21.8878 148.495 23.1184 148.163C24.349 147.853 25.6235 147.233 26.9419 146.324C28.2824 145.394 29.3152 144.397 30.0623 143.356C30.7875 142.315 31.183 141.251 31.2489 140.21C31.2929 139.147 31.0072 138.15 30.348 137.219C29.7327 136.311 28.9416 135.713 27.9528 135.403M33.9298 140.83C34.0617 142.558 33.7321 144.198 32.941 145.771C32.1499 147.343 30.9413 148.673 29.3372 149.803C27.733 150.932 26.063 151.575 24.327 151.774C22.591 151.974 20.9649 151.708 19.4047 150.955C17.8665 150.223 16.57 149.094 15.5152 147.565C14.4605 146.036 13.8671 144.419 13.7353 142.713C13.6035 141.008 13.9331 139.368 14.7242 137.795C15.5152 136.222 16.7019 134.893 18.328 133.763C19.9321 132.634 21.6022 131.991 23.3381 131.792C25.0741 131.592 26.7002 131.858 28.2604 132.567C29.7986 133.276 31.1171 134.406 32.1499 135.934C33.2047 137.463 33.798 139.102 33.9078 140.808" fill="#F7F5F0"/>
<path id="Vector_22" d="M9.93372 130.861C9.692 131.083 9.53818 131.349 9.5162 131.637C9.5162 131.947 9.56015 132.368 9.71397 132.921L8.72512 133.298L5.86845 128.358L5.78055 128.136L11.0105 126.187L10.9226 125.965C8.81302 126.142 7.16494 125.965 5.97832 125.434C4.7917 124.924 3.95667 124.016 3.49521 122.775C3.31941 122.31 3.20954 121.823 3.18756 121.313L6.81335 119.962C6.81335 120.471 6.94519 121.025 7.14296 121.579C7.60443 122.842 8.41748 123.75 9.6041 124.282C10.7907 124.835 12.307 125.079 14.1308 125.013L20.3276 122.709C21.1187 122.421 21.6681 122.177 21.9757 121.955C22.2834 121.756 22.4592 121.512 22.5031 121.202C22.5471 120.914 22.5031 120.449 22.3713 119.829L23.3601 119.452L25.9531 126.541L24.9642 126.918C24.7006 126.43 24.4588 126.098 24.2391 125.943C24.0193 125.788 23.7337 125.722 23.3601 125.766C22.9865 125.81 22.4152 125.987 21.6461 126.275L11.2302 130.152C10.6149 130.374 10.1974 130.595 9.93372 130.839" fill="#F7F5F0"/>
</g>
</svg>
